HIERARCHY
ROOT Hips
{
	OFFSET 0.000000 121.760803 0.000000
	CHANNELS 6 Xposition Yposition Zposition Xrotation Yrotation Zrotation 
	JOINT Spine
	{
		OFFSET 0.072000 7.257294 -0.789700
		CHANNELS 3 Xrotation Yrotation Zrotation
		JOINT Spine1
		{
			OFFSET 0.000000 12.508769 -0.658067
			CHANNELS 3 Xrotation Yrotation Zrotation
			JOINT Spine1_split
			{
				OFFSET 0.000000 12.508769 -0.658067
				CHANNELS 3 Xrotation Yrotation Zrotation
				JOINT Spine2
				{
					OFFSET 0.000000 12.508769 -0.658067
					CHANNELS 3 Xrotation Yrotation Zrotation
					JOINT Neck
					{
						OFFSET 0.000000 14.033295 7.520400
						CHANNELS 3 Xrotation Yrotation Zrotation
						JOINT Head
						{
							OFFSET 0.000000 8.198502 5.703100
							CHANNELS 3 Xrotation Yrotation Zrotation
							JOINT HeadTop_End
							{
								OFFSET 0.000000 17.760803 13.332701
								CHANNELS 3 Xrotation Yrotation Zrotation
								End Site
								{
									OFFSET 0.000000 0.000000 0.000000
								}
							}
						}
					}
					JOINT LeftShoulder
					{
						OFFSET 6.292450 5.785301 -0.669000
						CHANNELS 3 Xrotation Yrotation Zrotation
						JOINT LeftShoulder_split
						{
							OFFSET 6.292450 5.785301 -0.669000
							CHANNELS 3 Xrotation Yrotation Zrotation
							JOINT LeftArm
							{
								OFFSET 13.907140 -6.093903 1.965100
								CHANNELS 3 Xrotation Yrotation Zrotation
								JOINT LeftForeArm
								{
									OFFSET 34.140198 0.000000 0.000000
									CHANNELS 3 Xrotation Yrotation Zrotation
									JOINT LeftHand
									{
										OFFSET 40.960209 0.000000 0.000000
										CHANNELS 3 Xrotation Yrotation Zrotation
										JOINT LeftHandThumb1
										{
											OFFSET 10.006996 -7.170425 9.573125
											CHANNELS 3 Xrotation Yrotation Zrotation
											JOINT LeftHandThumb2
											{
												OFFSET 1.835007 -1.059448 1.059443
												CHANNELS 3 Xrotation Yrotation Zrotation
												JOINT LeftHandThumb3
												{
													OFFSET 2.112267 -1.219513 1.219518
													CHANNELS 3 Xrotation Yrotation Zrotation
													JOINT LeftHandThumb4
													{
														OFFSET 4.843811 -2.796570 2.796576
														CHANNELS 3 Xrotation Yrotation Zrotation
														End Site
														{
															OFFSET 0.000000 0.000000 0.000000
														}
													}
												}
											}
										}
										JOINT LeftHandIndex1
										{
											OFFSET 18.389847 -0.922348 4.596882
											CHANNELS 3 Xrotation Yrotation Zrotation
											JOINT LeftHandIndex2
											{
												OFFSET 4.711273 0.000000 0.000000
												CHANNELS 3 Xrotation Yrotation Zrotation
												JOINT LeftHandIndex3
												{
													OFFSET 2.886131 0.000000 0.000000
													CHANNELS 3 Xrotation Yrotation Zrotation
													JOINT LeftHandIndex4
													{
														OFFSET 6.145912 0.000000 0.000000
														CHANNELS 3 Xrotation Yrotation Zrotation
														End Site
														{
															OFFSET 0.000000 0.000000 0.000000
														}
													}
												}
											}
										}
										JOINT LeftHandMiddle1
										{
											OFFSET 18.013008 0.000000 0.000000
											CHANNELS 3 Xrotation Yrotation Zrotation
											JOINT LeftHandMiddle2
											{
												OFFSET 4.946693 0.000000 0.000000
												CHANNELS 3 Xrotation Yrotation Zrotation
												JOINT LeftHandMiddle3
												{
													OFFSET 3.342232 0.000000 0.000000
													CHANNELS 3 Xrotation Yrotation Zrotation
													JOINT LeftHandMiddle4
													{
														OFFSET 4.461754 0.000000 0.000000
														CHANNELS 3 Xrotation Yrotation Zrotation
														End Site
														{
															OFFSET 0.000000 0.000000 0.000000
														}
													}
												}
											}
										}
										JOINT LeftHandRing1
										{
											OFFSET 15.849892 -0.102921 -4.126150
											CHANNELS 3 Xrotation Yrotation Zrotation
											JOINT LeftHandRing2
											{
												OFFSET 3.527054 0.000000 0.000000
												CHANNELS 3 Xrotation Yrotation Zrotation
												JOINT LeftHandRing3
												{
													OFFSET 2.961098 0.000000 0.000000
													CHANNELS 3 Xrotation Yrotation Zrotation
													JOINT LeftHandRing4
													{
														OFFSET 4.927200 0.000000 0.000000
														CHANNELS 3 Xrotation Yrotation Zrotation
														End Site
														{
															OFFSET 0.000000 0.000000 0.000000
														}
													}
												}
											}
										}
										JOINT LeftHandPinky1
										{
											OFFSET 12.791824 -0.832031 -6.799156
											CHANNELS 3 Xrotation Yrotation Zrotation
											JOINT LeftHandPinky2
											{
												OFFSET 3.327133 0.000000 0.000000
												CHANNELS 3 Xrotation Yrotation Zrotation
												JOINT LeftHandPinky3
												{
													OFFSET 3.014900 0.000000 0.000000
													CHANNELS 3 Xrotation Yrotation Zrotation
													JOINT LeftHandPinky4
													{
														OFFSET 5.847786 0.000000 0.000000
														CHANNELS 3 Xrotation Yrotation Zrotation
														End Site
														{
															OFFSET 0.000000 0.000000 0.000000
														}
													}
												}
											}
										}
									}
								}
							}
						}
					}
					JOINT RightShoulder
					{
						OFFSET -6.292450 5.785301 -0.669000
						CHANNELS 3 Xrotation Yrotation Zrotation
						JOINT RightShoulder_split
						{
							OFFSET -6.292450 5.785301 -0.669000
							CHANNELS 3 Xrotation Yrotation Zrotation
							JOINT RightArm
							{
								OFFSET -13.907140 -6.093903 1.965100
								CHANNELS 3 Xrotation Yrotation Zrotation
								JOINT RightForeArm
								{
									OFFSET -34.140198 0.000000 0.000000
									CHANNELS 3 Xrotation Yrotation Zrotation
									JOINT RightHand
									{
										OFFSET -40.960209 0.000000 0.000000
										CHANNELS 3 Xrotation Yrotation Zrotation
										JOINT RightHandThumb1
										{
											OFFSET -10.007050 -7.170456 9.573117
											CHANNELS 3 Xrotation Yrotation Zrotation
											JOINT RightHandThumb2
											{
												OFFSET -1.835007 -1.059448 1.059443
												CHANNELS 3 Xrotation Yrotation Zrotation
												JOINT RightHandThumb3
												{
													OFFSET -2.112267 -1.219513 1.219518
													CHANNELS 3 Xrotation Yrotation Zrotation
													JOINT RightHandThumb4
													{
														OFFSET -4.843834 -2.796585 2.796590
														CHANNELS 3 Xrotation Yrotation Zrotation
														End Site
														{
															OFFSET 0.000000 0.000000 0.000000
														}
													}
												}
											}
										}
										JOINT RightHandIndex1
										{
											OFFSET -18.389870 -0.922424 4.596786
											CHANNELS 3 Xrotation Yrotation Zrotation
											JOINT RightHandIndex2
											{
												OFFSET -4.711273 0.000000 0.000000
												CHANNELS 3 Xrotation Yrotation Zrotation
												JOINT RightHandIndex3
												{
													OFFSET -2.886131 0.000000 0.000000
													CHANNELS 3 Xrotation Yrotation Zrotation
													JOINT RightHandIndex4
													{
														OFFSET -6.145920 0.000000 0.000000
														CHANNELS 3 Xrotation Yrotation Zrotation
														End Site
														{
															OFFSET 0.000000 0.000000 0.000000
														}
													}
												}
											}
										}
										JOINT RightHandMiddle1
										{
											OFFSET -18.013008 0.000000 0.000000
											CHANNELS 3 Xrotation Yrotation Zrotation
											JOINT RightHandMiddle2
											{
												OFFSET -4.946693 0.000000 0.000000
												CHANNELS 3 Xrotation Yrotation Zrotation
												JOINT RightHandMiddle3
												{
													OFFSET -3.342232 0.000000 0.000000
													CHANNELS 3 Xrotation Yrotation Zrotation
													JOINT RightHandMiddle4
													{
														OFFSET -4.461754 0.000000 0.000000
														CHANNELS 3 Xrotation Yrotation Zrotation
														End Site
														{
															OFFSET 0.000000 0.000000 0.000000
														}
													}
												}
											}
										}
										JOINT RightHandRing1
										{
											OFFSET -15.849876 -0.102936 -4.126237
											CHANNELS 3 Xrotation Yrotation Zrotation
											JOINT RightHandRing2
											{
												OFFSET -3.527054 0.000000 0.000000
												CHANNELS 3 Xrotation Yrotation Zrotation
												JOINT RightHandRing3
												{
													OFFSET -2.961098 0.000000 0.000000
													CHANNELS 3 Xrotation Yrotation Zrotation
													JOINT RightHandRing4
													{
														OFFSET -4.927200 0.000000 0.000000
														CHANNELS 3 Xrotation Yrotation Zrotation
														End Site
														{
															OFFSET 0.000000 0.000000 0.000000
														}
													}
												}
											}
										}
										JOINT RightHandPinky1
										{
											OFFSET -12.791786 -0.832077 -6.799222
											CHANNELS 3 Xrotation Yrotation Zrotation
											JOINT RightHandPinky2
											{
												OFFSET -3.327133 0.000000 0.000000
												CHANNELS 3 Xrotation Yrotation Zrotation
												JOINT RightHandPinky3
												{
													OFFSET -3.014900 0.000000 0.000000
													CHANNELS 3 Xrotation Yrotation Zrotation
													JOINT RightHandPinky4
													{
														OFFSET -5.847786 0.000000 0.000000
														CHANNELS 3 Xrotation Yrotation Zrotation
														End Site
														{
															OFFSET 0.000000 0.000000 0.000000
														}
													}
												}
											}
										}
									}
								}
							}
						}
					}
				}
			}
		}
	}
	JOINT LeftUpLeg
	{
		OFFSET 13.026900 -6.336304 -1.092800
		CHANNELS 3 Xrotation Yrotation Zrotation
		JOINT LeftLeg
		{
			OFFSET 0.524474 -46.096886 9.782700
			CHANNELS 3 Xrotation Yrotation Zrotation
			JOINT LeftFoot
			{
				OFFSET -0.524474 -53.427422 -12.948200
				CHANNELS 3 Xrotation Yrotation Zrotation
				JOINT LeftToeBase
				{
					OFFSET 0.192200 -14.009700 16.364100
					CHANNELS 3 Xrotation Yrotation Zrotation
					JOINT LeftToe_End
					{
						OFFSET -1.784700 -0.561700 9.474800
						CHANNELS 3 Xrotation Yrotation Zrotation
						End Site
						{
							OFFSET 0.000000 0.000000 0.000000
						}
					}
				}
			}
		}
	}
	JOINT RightUpLeg
	{
		OFFSET -12.883000 -6.336304 -1.092800
		CHANNELS 3 Xrotation Yrotation Zrotation
		JOINT RightLeg
		{
			OFFSET -0.524587 -46.096825 9.782800
			CHANNELS 3 Xrotation Yrotation Zrotation
			JOINT RightFoot
			{
				OFFSET 0.524587 -53.427383 -12.948300
				CHANNELS 3 Xrotation Yrotation Zrotation
				JOINT RightToeBase
				{
					OFFSET -0.192200 -14.009700 16.364100
					CHANNELS 3 Xrotation Yrotation Zrotation
					JOINT RightToe_End
					{
						OFFSET 1.784700 -0.561700 9.474800
						CHANNELS 3 Xrotation Yrotation Zrotation
						End Site
						{
							OFFSET 0.000000 0.000000 0.000000
						}
					}
				}
			}
		}
	}
}
MOTION
Frames: 4
Frame Time: 0.016667
3.042081 54.726295 -24.202667 35.846417 0.005528 2.333193 11.084421 0.088883 -2.199634 22.176803 0.436128 -4.312041 0.000000 0.000000 0.000000 22.176793 0.436130 -4.312045 -24.273813 -2.101649 -0.458652 -32.969907 -5.781658 3.191219 0.000002 -0.000000 0.000000 0.640956 -3.294367 -0.953793 0.000000 0.000000 0.000000 -15.835100 -34.689967 -16.373898 4.580933 -102.085298 2.759631 44.263253 29.883591 20.699394 11.125191 -10.607996 5.635060 13.047550 13.035006 -0.568281 0.000006 0.000009 0.000009 0.000001 0.000001 0.000001 2.762756 -9.722656 -4.298513 -0.734984 0.012645 -24.937154 -0.000001 0.000009 0.000008 -0.000002 0.000001 -0.000003 0.691163 0.688880 -10.668329 -1.829426 -2.017365 -30.196027 0.000008 0.000004 0.000005 -0.000000 0.000000 -0.000000 0.170513 9.516308 -23.800778 -0.026556 -3.190976 -36.374825 -0.000003 0.000005 0.000004 0.000001 -0.000000 -0.000001 0.671146 29.060826 -33.488134 0.187207 -6.380944 -42.445575 -0.000005 0.000003 0.000004 -0.000000 -0.000000 -0.000000 5.833061 29.728009 10.839905 0.000000 0.000000 0.000000 -38.904344 17.802014 21.911278 10.180165 60.700321 -18.967905 39.144890 -25.749547 -58.258099 -28.903096 10.876026 -5.700020 1.644015 -0.336614 -1.627243 0.000010 -0.000010 -0.000007 0.000000 -0.000001 0.000000 -1.509182 6.134604 4.269183 0.284812 -2.247846 5.347509 -0.000000 0.000004 -0.000016 0.000001 -0.000000 0.000000 -0.686669 -1.935903 4.591084 -0.718852 0.493047 15.506160 -0.000002 -0.000002 0.000006 -0.000002 -0.000001 0.000001 2.037172 -12.731017 11.026377 0.036380 2.329731 17.761658 0.000002 -0.000000 0.000012 0.000001 -0.000000 0.000001 6.528002 -28.103848 17.554862 -0.488528 6.557327 19.904215 0.000005 0.000002 -0.000009 0.000002 -0.000002 -0.000002 -101.856180 -14.784115 32.298899 119.165709 2.236614 -0.876298 -20.603858 -17.518262 -20.997689 -29.804067 0.525340 -1.193162 -0.000000 -0.000003 -0.000000 -115.986256 -5.639138 -11.891553 124.596693 7.865198 -1.223482 -12.173619 0.200490 -11.822366 -40.777309 -0.185480 -1.536659 -0.000001 0.000000 -0.000000 
3.074900 52.900177 -24.700920 37.236883 1.789901 2.119423 10.522568 -0.201005 -2.026719 21.050935 0.321395 -3.994275 0.000000 0.000000 0.000000 21.050935 0.321397 -3.994273 -21.738779 -2.217309 -0.825592 -34.315659 -6.604941 3.109560 0.000001 0.000000 0.000000 0.343000 -2.949976 -1.792632 0.000000 0.000000 0.000000 -16.403956 -37.051249 -18.318919 2.482739 -100.497566 0.139100 47.566380 27.306019 17.670596 11.188556 -11.111356 6.012808 11.620611 14.042180 -0.106125 0.000004 0.000006 0.000005 0.000001 -0.000002 0.000003 3.446691 -9.799950 -1.845114 -0.760090 -0.016570 -25.262916 -0.000001 0.000008 0.000010 0.000001 0.000000 -0.000002 0.747684 0.207633 -8.580258 -1.876520 -2.032504 -30.535132 0.000008 0.000004 0.000004 -0.000000 -0.000000 -0.000001 0.085831 9.613139 -22.173791 -0.014827 -3.214891 -36.633825 -0.000002 0.000005 0.000003 0.000002 0.000000 0.000000 -0.053545 29.550506 -31.903376 0.218728 -6.412742 -42.751520 -0.000005 0.000003 0.000004 0.000000 0.000000 0.000001 5.774377 29.321374 12.382898 0.000000 0.000000 0.000000 -39.766123 19.774412 22.445566 8.302427 57.691644 -16.019526 40.345258 -23.597496 -59.666224 -31.298157 12.346690 -7.537890 1.803074 -0.055157 -1.277175 0.000009 -0.000009 -0.000007 0.000002 -0.000000 -0.000000 -1.571552 6.221604 2.837440 0.274709 -2.142556 6.406116 0.000001 0.000004 -0.000014 0.000001 0.000000 0.000001 -0.726556 -1.842127 4.353597 -0.734665 0.515548 15.825671 -0.000005 -0.000002 0.000005 -0.000000 0.000000 -0.000003 2.017711 -12.871200 10.562713 0.036064 2.354651 18.021456 -0.000002 0.000001 0.000007 -0.000001 -0.000002 0.000002 6.575654 -28.588187 17.176304 -0.497810 6.579896 20.205325 0.000004 0.000005 -0.000008 0.000000 0.000000 0.000001 -98.151471 -15.689356 34.922211 119.511590 0.720566 -0.969036 -24.835309 -16.013191 -25.209262 -30.881427 0.389169 -1.463154 0.000000 -0.000002 -0.000000 -120.813916 -2.905605 -10.774324 126.940432 6.510787 -0.823162 -9.923646 -0.455349 -9.296144 -41.811594 0.175458 -2.344916 -0.000001 0.000000 -0.000000 
3.103783 51.263557 -25.010254 38.498050 3.321471 1.891878 9.881749 -0.402289 -1.834048 19.767515 0.228246 -3.621573 0.000000 0.000000 0.000000 19.767498 0.228247 -3.621571 -19.301396 -2.327293 -1.169202 -35.559751 -7.352562 3.025417 0.000003 0.000000 0.000000 0.020292 -2.572768 -2.855806 0.000000 0.000000 0.000000 -17.018362 -39.190471 -20.988090 0.982724 -97.925071 -1.973417 50.723485 23.806834 15.248155 11.263546 -11.681009 6.443932 9.567426 15.252089 0.466255 -0.000000 0.000004 0.000009 0.000000 0.000001 0.000003 4.242350 -9.839378 0.880822 -0.788966 -0.049303 -25.632418 -0.000000 0.000008 0.000004 -0.000001 -0.000002 0.000003 0.850837 -0.260210 -6.350886 -1.929581 -2.048776 -30.911961 0.000007 0.000006 0.000004 0.000001 -0.000002 0.000002 0.007489 9.769564 -20.426799 -0.002228 -3.242801 -36.940132 -0.000004 0.000005 0.000004 0.000000 -0.000000 -0.000000 -0.979645 29.990432 -30.003918 0.254549 -6.449634 -43.107912 -0.000005 0.000003 0.000005 0.000000 0.000000 -0.000001 5.824595 28.867795 13.884153 0.000000 0.000000 0.000000 -39.853112 20.536063 22.693090 6.574758 55.607726 -13.152777 41.209967 -21.195269 -61.261169 -33.487024 13.898108 -9.125754 2.049868 0.409621 -0.803320 0.000007 -0.000008 -0.000006 -0.000000 0.000001 0.000000 -1.697775 6.426627 1.495230 0.265367 -2.026624 7.570308 0.000000 0.000003 -0.000014 -0.000002 0.000001 0.000001 -0.774790 -1.732070 4.150757 -0.747653 0.537078 16.125687 -0.000003 -0.000002 0.000009 -0.000001 -0.000000 -0.000001 1.998252 -12.963665 10.222169 0.036642 2.380244 18.283472 -0.000000 -0.000002 0.000011 -0.000001 0.000001 0.000001 6.654030 -29.138506 16.814423 -0.510106 6.601665 20.511410 0.000003 -0.000001 -0.000007 -0.000001 0.000002 -0.000001 -96.697788 -16.707720 36.601461 119.922112 -0.515424 -1.097985 -27.120618 -15.506911 -27.854124 -31.475554 0.137935 -1.640725 -0.000000 -0.000001 -0.000001 -125.068960 -0.665343 -9.726768 129.035087 5.507386 -0.538315 -8.167981 -1.044689 -7.198166 -41.656176 0.256755 -2.698143 0.000001 -0.000000 -0.000000 
3.139976 49.800804 -25.085518 39.614718 4.540467 1.665600 9.203115 -0.475622 -1.620695 18.408704 0.142228 -3.175028 0.000000 0.000000 0.000000 18.408717 0.142230 -3.175028 -17.035907 -2.424129 -1.481489 -36.678737 -8.013699 2.944161 0.000004 0.000000 -0.000000 -0.284229 -2.135470 -4.160777 0.000000 0.000000 0.000000 -17.677322 -40.741904 -24.178919 -0.081180 -94.687869 -3.562676 53.370169 19.581292 13.653777 11.343357 -12.273129 6.900007 6.708306 16.475106 1.460189 0.000002 0.000005 0.000007 0.000001 -0.000001 0.000000 5.234338 -9.820466 4.263367 -0.819172 -0.080983 -26.000234 0.000006 0.000007 0.000013 -0.000002 -0.000003 0.000001 1.074207 -0.480990 -4.034316 -1.984924 -2.064388 -31.305120 0.000004 0.000005 0.000005 0.000002 -0.000000 0.000001 -0.066305 10.084464 -18.359069 0.011150 -3.271428 -37.253406 -0.000005 0.000005 0.000004 -0.000000 -0.000000 -0.000000 -2.129066 30.421345 -27.650978 0.291429 -6.488839 -43.471241 -0.000005 0.000003 0.000004 -0.000000 -0.000000 -0.000000 5.973603 28.508233 15.261347 0.000000 0.000000 0.000000 -39.460564 20.823664 22.407583 5.371277 54.315652 -10.616636 41.903965 -19.438140 -62.692742 -34.145601 14.695666 -8.490559 2.362736 0.806138 -0.204932 0.000009 -0.000007 -0.000008 -0.000002 -0.000000 0.000000 -1.881069 6.920213 0.918373 0.258635 -1.909422 8.741233 0.000001 0.000003 -0.000017 0.000000 0.000000 0.000000 -0.827269 -1.607662 4.041265 -0.757725 0.556748 16.394284 -0.000002 -0.000002 0.000005 0.000001 0.000001 0.000001 1.986206 -12.991896 10.062151 0.038636 2.401857 18.499117 -0.000001 0.000000 0.000006 -0.000000 0.000001 -0.000001 6.755807 -29.733518 16.485442 -0.523444 6.614798 20.722044 0.000003 0.000001 -0.000010 0.000001 -0.000002 -0.000001 -99.014363 -18.367741 36.554250 121.224492 -0.863811 -1.216367 -26.907815 -16.596593 -28.437614 -31.513120 -0.218612 -1.703808 -0.000000 0.000001 0.000000 -128.427022 0.971791 -9.170880 130.863993 4.896987 -0.331356 -7.466836 -1.675635 -5.713357 -40.890041 -0.103636 -2.531047 -0.000000 -0.000000 0.000000 
